HIERARCHY
ROOT Hips
{
	OFFSET 0.000000 0.000000 0.000000
	CHANNELS 6 Xposition Yposition Zposition Zrotation Yrotation Xrotation 
	JOINT LowerBack
	{
		OFFSET 0.000000 0.000000 0.000000
		CHANNELS 3 Zrotation Yrotation Xrotation
		JOINT Spine
		{
			OFFSET 0.028270 2.035590 -0.193380
			CHANNELS 3 Zrotation Yrotation Xrotation
			JOINT Spine1
			{
				OFFSET 0.056720 2.048850 -0.042750
				CHANNELS 3 Zrotation Yrotation Xrotation
				JOINT Neck
				{
					OFFSET 0.000000 0.000000 0.000000
					CHANNELS 3 Zrotation Yrotation Xrotation
					JOINT Neck1
					{
						OFFSET -0.054170 1.746240 0.172020
						CHANNELS 3 Zrotation Yrotation Xrotation
						JOINT Head
						{
							OFFSET 0.104070 1.761360 -0.123970
							CHANNELS 3 Zrotation Yrotation Xrotation
							End Site
							{
								OFFSET 0.000000 0.000000 0.000000
							}
						}
					}
				}
				JOINT LeftShoulder
				{
					OFFSET 0.000000 0.000000 0.000000
					CHANNELS 3 Zrotation Yrotation Xrotation
					JOINT LeftArm
					{
						OFFSET 3.362410 1.200890 -0.311210
						CHANNELS 3 Zrotation Yrotation Xrotation
						JOINT LeftForeArm
						{
							OFFSET 4.983000 -0.000000 -0.000000
							CHANNELS 3 Zrotation Yrotation Xrotation
							JOINT LeftHand
							{
								OFFSET 3.483560 -0.000000 -0.000000
								CHANNELS 3 Zrotation Yrotation Xrotation
								JOINT LeftFingerBase
								{
									OFFSET 0.000000 0.000000 0.000000
									CHANNELS 3 Zrotation Yrotation Xrotation
									JOINT LeftHandIndex1
									{
										OFFSET 0.715260 -0.000000 -0.000000
										CHANNELS 3 Zrotation Yrotation Xrotation
										End Site
										{
											OFFSET 0.000000 0.000000 0.000000
										}
									}
								}
								JOINT LThumb
								{
									OFFSET 0.000000 0.000000 0.000000
									CHANNELS 3 Zrotation Yrotation Xrotation
									End Site
									{
										OFFSET 0.000000 0.000000 0.000000
									}
								}
							}
						}
					}
				}
				JOINT RightShoulder
				{
					OFFSET 0.000000 0.000000 0.000000
					CHANNELS 3 Zrotation Yrotation Xrotation
					JOINT RightArm
					{
						OFFSET -3.136600 1.374050 -0.404650
						CHANNELS 3 Zrotation Yrotation Xrotation
						JOINT RightForeArm
						{
							OFFSET -5.241900 -0.000000 -0.000000
							CHANNELS 3 Zrotation Yrotation Xrotation
							JOINT RightHand
							{
								OFFSET -3.444170 -0.000000 -0.000000
								CHANNELS 3 Zrotation Yrotation Xrotation
								JOINT RightFingerBase
								{
									OFFSET 0.000000 0.000000 0.000000
									CHANNELS 3 Zrotation Yrotation Xrotation
									JOINT RightHandIndex1
									{
										OFFSET -0.622530 -0.000000 -0.000000
										CHANNELS 3 Zrotation Yrotation Xrotation
										End Site
										{
											OFFSET 0.000000 0.000000 0.000000
										}
									}
								}
								JOINT RThumb
								{
									OFFSET 0.000000 0.000000 0.000000
									CHANNELS 3 Zrotation Yrotation Xrotation
									End Site
									{
										OFFSET 0.000000 0.000000 0.000000
									}
								}
							}
						}
					}
				}
			}
		}
	}
}
}
MOTION
Frames: 10
Frame Time: 0.008333
3.414030 17.099829 1.492987 15.905924 -27.568499 -1.481181 -2.823448 1.642476 -5.453845 -0.480807 1.958419 -4.332535 -0.835381 1.867974 -2.990774 -6.801199 5.280203 1.493670 -1.947394 -0.264752 2.506919 0.000000 0.000000 0.000000 1.352566 6.264636 -8.587903 -95.737348 -64.396684 49.416546 179.062288 -77.300478 179.848594 9.973551 -6.059722 -0.612553 -0.050524 0.917172 -0.000000 0.000000 0.000000 0.000000 0.000000 0.000000 0.000000 -7.258350 10.925736 4.796475 15.539984 11.699104 -50.771298 -1.424400 17.502134 -0.179464 -26.546732 8.535170 -2.174003 0.383978 -0.535876 -0.000000 0.000000 0.000000 0.000000 0.000000 0.000000 0.000000 
3.415302 17.102028 1.475512 16.042431 -27.445288 -1.567067 -2.566532 1.844557 -5.342326 -0.368996 2.144907 -4.266314 -0.545758 2.052895 -2.855569 -7.931374 5.914796 1.279200 -1.790670 -0.252257 2.448949 0.000000 0.000000 0.000000 0.485110 7.013407 -8.524573 -95.128206 -64.266496 48.547851 179.001382 -76.715825 179.848779 10.039931 -5.956217 -0.606430 -0.046801 0.905129 -0.000000 0.000000 0.000000 0.000000 0.000000 0.000000 0.000000 -8.855732 11.550915 4.867112 12.475220 12.284834 -56.039366 -1.670726 12.716951 -0.172228 -25.971921 9.561112 -2.374319 0.406092 -0.555581 -0.000000 0.000000 0.000000 0.000000 0.000000 0.000000 0.000000 
3.413804 17.104523 1.458030 16.156170 -27.335971 -1.617360 -2.372624 2.023958 -5.236480 -0.267120 2.315016 -4.217351 -0.251428 2.220209 -2.777378 -8.955298 6.503827 1.083322 -1.629422 -0.239921 2.398072 0.000000 0.000000 0.000000 -0.279481 7.642558 -8.489192 -94.793526 -64.019447 47.841446 178.933922 -76.124385 179.848796 10.089003 -5.889427 -0.602391 -0.041928 0.895563 -0.000000 0.000000 0.000000 0.000000 0.000000 0.000000 0.000000 -10.402057 12.139324 4.919813 9.649123 12.433964 -60.985475 -1.891990 8.866445 -0.165433 -25.571061 10.362663 -2.529112 0.428492 -0.571493 -0.000000 0.000000 0.000000 0.000000 0.000000 0.000000 0.000000 
3.409393 17.107269 1.440563 16.242015 -27.233544 -1.636536 -2.253378 2.180587 -5.142376 -0.180879 2.469188 -4.184383 0.035553 2.370908 -2.747113 -9.842397 7.000364 0.913654 -1.468018 -0.228107 2.356218 0.000000 0.000000 0.000000 -0.912799 8.137111 -8.487224 -94.735998 -63.659400 47.310100 178.861320 -75.525586 179.848757 10.112214 -5.856509 -0.600035 -0.035964 0.888417 -0.000000 0.000000 0.000000 0.000000 0.000000 0.000000 0.000000 -11.856485 12.648326 4.952114 7.154332 12.251553 -65.074746 -2.067780 5.996511 -0.159858 -25.357201 10.800040 -2.613281 0.452912 -0.581905 0.000000 0.000000 0.000000 0.000000 0.000000 0.000000 0.000000 
3.402094 17.110228 1.423165 16.299886 -27.140688 -1.629374 -2.207673 2.314594 -5.063571 -0.113596 2.606932 -4.163954 0.300959 2.504988 -2.750767 -10.583053 7.342563 0.768159 -1.311106 -0.217047 2.322487 0.000000 0.000000 0.000000 -1.404250 8.497180 -8.521010 -94.929502 -63.202554 46.944540 178.784609 -74.918409 179.848796 10.103833 -5.851793 -0.598365 -0.028959 0.883357 -0.000000 0.000000 0.000000 0.000000 0.000000 0.000000 0.000000 -13.194072 13.016948 4.963484 5.027545 11.944708 -68.117102 -2.193891 4.023165 -0.155549 -25.236695 10.922660 -2.632928 0.478852 -0.588347 0.000000 0.000000 0.000000 0.000000 0.000000 0.000000 0.000000 
3.392326 17.113435 1.405875 16.330191 -27.066752 -1.600687 -2.224064 2.426649 -5.001296 -0.065668 2.727498 -4.152065 0.533418 2.622003 -2.773990 -11.183043 7.484281 0.642324 -1.162811 -0.206894 2.295180 0.000000 0.000000 0.000000 -1.759744 8.729829 -8.588508 -95.322038 -62.673436 46.714888 178.704423 -74.293986 179.848985 10.062898 -5.865842 -0.596580 -0.021090 0.879926 -0.000000 0.000000 0.000000 0.000000 0.000000 0.000000 0.000000 -14.402174 13.198558 4.956350 3.243814 11.709270 -70.250059 -2.279266 2.804321 -0.152179 -25.065246 10.900233 -2.613462 0.503461 -0.594629 -0.000000 0.000000 0.000000 0.000000 0.000000 0.000000 0.000000 
3.380428 17.116992 1.388811 16.336547 -27.028017 -1.552702 -2.287844 2.516904 -4.959247 -0.035542 2.829577 -4.145857 0.726558 2.720698 -2.804221 -11.657004 7.409269 0.531177 -1.025324 -0.197678 2.272451 0.000000 0.000000 0.000000 -1.996378 8.851602 -8.682485 -95.848116 -62.099081 46.578211 178.621473 -73.646668 179.849223 10.003435 -5.891447 -0.594684 -0.013037 0.877837 -0.000000 0.000000 0.000000 0.000000 0.000000 0.000000 0.000000 -15.485224 13.177301 4.932425 1.773063 11.675131 -71.748490 -2.339629 2.235540 -0.149648 -24.738170 10.903390 -2.583887 0.523378 -0.605006 -0.000000 0.000000 0.000000 0.000000 0.000000 0.000000 0.000000 
3.367157 17.121086 1.372046 16.318892 -27.044304 -1.488812 -2.381133 2.587432 -4.938176 -0.021458 2.913450 -4.143479 0.872565 2.801544 -2.834223 -12.011531 7.126976 0.434991 -0.903568 -0.189669 2.253850 0.000000 0.000000 0.000000 -2.126494 8.871214 -8.794458 -96.441932 -61.503157 46.493463 178.538370 -72.971674 179.849581 9.925878 -5.918279 -0.591977 -0.005183 0.876822 -0.000000 0.000000 0.000000 0.000000 0.000000 0.000000 0.000000 -16.425989 12.962922 4.894470 0.558107 11.899930 -72.789237 -2.383784 2.226818 -0.147833 -24.194047 11.009669 -2.555111 0.536120 -0.621835 -0.000000 0.000000 0.000000 0.000000 0.000000 0.000000 0.000000 
3.353128 17.125782 1.355641 16.279978 -27.136563 -1.411732 -2.489765 2.640585 -4.939091 -0.021787 2.980094 -4.144866 0.966271 2.865745 -2.862967 -12.248039 6.677383 0.358091 -0.801324 -0.183136 2.240131 0.000000 0.000000 0.000000 -2.160237 8.797934 -8.914069 -97.047746 -60.902371 46.422248 178.457889 -72.270857 179.849868 9.848256 -5.943964 -0.589252 0.001510 0.877067 -0.000000 0.000000 0.000000 0.000000 0.000000 0.000000 0.000000 -17.210513 12.595151 4.840497 -0.422704 12.370966 -73.388776 -2.414805 2.766579 -0.147033 -23.456554 11.190086 -2.521037 0.541126 -0.645224 -0.000000 0.000000 0.000000 0.000000 0.000000 0.000000 0.000000 
3.339065 17.131163 1.339698 16.220977 -27.323127 -1.323275 -2.600316 2.677811 -4.963022 -0.034969 3.029780 -4.150234 1.003268 2.913947 -2.889841 -12.364935 6.099534 0.303222 -0.723894 -0.178435 2.231696 0.000000 0.000000 0.000000 -2.103076 8.640217 -9.032863 -97.619964 -60.310792 46.336567 178.384030 -71.552052 179.850069 9.776596 -5.961230 -0.586310 0.006461 0.878551 -0.000000 0.000000 0.000000 0.000000 0.000000 0.000000 0.000000 -17.811718 12.109675 4.771308 -1.232970 13.073823 -73.580351 -2.435444 3.777833 -0.147204 -22.572942 11.410328 -2.477169 0.538492 -0.673960 -0.000000 0.000000 0.000000 0.000000 0.000000 0.000000 0.000000 
